<svg width="300" height="57" viewBox="0 0 300 57" fill="none" xmlns="http://www.w3.org/2000/svg">
<path d="M69.3984 48.0234C69.4766 46.8828 69.5547 45.7812 69.6328 44.7188C69.7109 43.6562 69.7812 42.625 69.8438 41.625L70.6875 30.5625C70.7812 29.7188 70.8594 28.9531 70.9219 28.2656C70.9844 27.5625 71.0312 26.8828 71.0625 26.2266C71.1094 25.5547 71.1484 24.8828 71.1797 24.2109C71.2266 23.5234 71.2734 22.7656 71.3203 21.9375C70.8047 21.9219 70.2578 21.9141 69.6797 21.9141C69.1172 21.9141 68.5234 21.9141 67.8984 21.9141H63.375C63.2031 21.9141 63.0938 21.8516 63.0469 21.7266C63.0156 21.5859 63 21.4609 63 21.3516V21.1875L65.5781 14.4141L65.5547 14.3203C65.5547 14.2422 65.6016 14.1797 65.6953 14.1328C65.8047 14.0703 66.0391 14.0234 66.3984 13.9922C68.5547 13.8672 70.6406 13.75 72.6562 13.6406C74.6875 13.5156 76.6875 13.4062 78.6562 13.3125C80.6406 13.2188 82.6172 13.125 84.5859 13.0312C86.5703 12.9375 88.6094 12.8516 90.7031 12.7734C90.8906 12.7734 91.0859 12.7969 91.2891 12.8438C91.5078 12.8906 91.6172 13.0625 91.6172 13.3594C91.6172 13.3906 91.6094 13.4219 91.5938 13.4531C91.5781 13.4844 91.5703 13.5156 91.5703 13.5469C91.3203 14.1875 91.0859 14.7969 90.8672 15.375C90.6641 15.9531 90.4609 16.5234 90.2578 17.0859C90.0547 17.6484 89.8438 18.2188 89.625 18.7969C89.4219 19.375 89.1953 19.9844 88.9453 20.625C88.9297 20.6406 88.8984 20.7188 88.8516 20.8594C88.8047 20.9844 88.7344 21.1328 88.6406 21.3047C88.5469 21.4609 88.4219 21.6094 88.2656 21.75C88.1094 21.8906 87.9141 21.9688 87.6797 21.9844C87.6016 21.9688 87.5234 21.9609 87.4453 21.9609C87.3672 21.9609 87.2812 21.9609 87.1875 21.9609H80.9297C80.8516 22.7578 80.7734 23.6016 80.6953 24.4922C80.6328 25.3828 80.5547 26.25 80.4609 27.0938L78.75 45.3984C78.7344 45.5391 78.7031 45.6797 78.6562 45.8203C78.625 45.9609 78.5234 46.0625 78.3516 46.125L71.7188 48.5156C71.5469 48.5781 71.3203 48.6562 71.0391 48.75C70.7578 48.8438 70.4844 48.8906 70.2188 48.8906C70 48.8906 69.8047 48.8359 69.6328 48.7266C69.4766 48.6172 69.3984 48.4141 69.3984 48.1172V48.0234Z" fill="white"/>
<path d="M108.211 28.1953C107.883 28.1641 107.516 28.1328 107.109 28.1016C106.703 28.0547 106.273 28.0312 105.82 28.0312C105.133 28.0312 104.43 28.0938 103.711 28.2188C103.008 28.3281 102.352 28.5547 101.742 28.8984C101.133 29.2422 100.609 29.7188 100.172 30.3281C99.7344 30.9219 99.4531 31.6953 99.3281 32.6484C99.2188 33.8047 99.125 34.7578 99.0469 35.5078C98.9844 36.2422 98.9375 36.8516 98.9062 37.3359C98.875 37.8047 98.8438 38.1875 98.8125 38.4844C98.7969 38.7656 98.7812 39.0312 98.7656 39.2812C98.7656 39.3438 98.75 39.5156 98.7188 39.7969C98.7031 40.0781 98.6719 40.4062 98.625 40.7812C98.5781 41.1562 98.5312 41.5625 98.4844 42C98.4531 42.4375 98.4141 42.8438 98.3672 43.2188C98.3203 43.5938 98.2812 43.9219 98.25 44.2031C98.2344 44.4844 98.2266 44.6562 98.2266 44.7188C98.2266 44.8438 98.2266 44.9531 98.2266 45.0469C98.2422 45.125 98.25 45.2031 98.25 45.2812C98.25 45.4062 98.1875 45.5156 98.0625 45.6094C97.9531 45.6875 97.6953 45.7812 97.2891 45.8906L91.0781 48.1172C90.9062 48.1797 90.6797 48.2578 90.3984 48.3516C90.1172 48.4453 89.8438 48.4922 89.5781 48.4922C89.3594 48.4922 89.1641 48.4375 88.9922 48.3281C88.8359 48.2188 88.7578 48.0312 88.7578 47.7656L90.7734 24.5391C90.8203 24.0234 90.875 23.6719 90.9375 23.4844C91.0156 23.2812 91.1953 23.1484 91.4766 23.0859C92.8984 22.8047 94.3672 22.5234 95.8828 22.2422C97.3984 21.9453 98.8672 21.5703 100.289 21.1172C100.414 21.1172 100.484 21.1406 100.5 21.1875C100.531 21.2188 100.547 21.2734 100.547 21.3516C100.547 21.3828 100.539 21.4297 100.523 21.4922C100.523 21.5547 100.5 21.6953 100.453 21.9141C100.422 22.1328 100.367 22.4688 100.289 22.9219C100.227 23.3594 100.133 23.9766 100.008 24.7734C100.727 24.2109 101.516 23.6953 102.375 23.2266C103.25 22.7578 104.125 22.3594 105 22.0312C105.875 21.6875 106.719 21.4219 107.531 21.2344C108.344 21.0312 109.055 20.9297 109.664 20.9297L108.211 28.1953Z" fill="white"/>
<path d="M133.734 42.5625C133.719 42.625 133.711 42.6875 133.711 42.75C133.711 42.7969 133.711 42.8438 133.711 42.8906C133.711 43.2812 133.773 43.6094 133.898 43.875C134.023 44.125 134.156 44.3359 134.297 44.5078C134.453 44.6641 134.594 44.7969 134.719 44.9062C134.844 45 134.906 45.0859 134.906 45.1641C134.906 45.3828 134.672 45.5859 134.203 45.7734L127.898 48.4688C127.883 48.4844 127.828 48.4922 127.734 48.4922C127.609 48.4922 127.484 48.3828 127.359 48.1641C127.234 47.9453 127.109 47.6641 126.984 47.3203C126.875 46.9922 126.766 46.6406 126.656 46.2656C126.562 45.875 126.477 45.5156 126.398 45.1875C125.414 46.3281 124.352 47.1641 123.211 47.6953C122.07 48.2266 120.938 48.4922 119.812 48.4922C118.5 48.4922 117.219 48.2031 115.969 47.625C114.719 47.0469 113.609 46.2266 112.641 45.1641C111.672 44.0859 110.891 42.7891 110.297 41.2734C109.719 39.7578 109.43 38.0547 109.43 36.1641C109.43 33.9297 109.75 31.8906 110.391 30.0469C111.047 28.2031 111.93 26.6172 113.039 25.2891C114.148 23.9609 115.438 22.9375 116.906 22.2188C118.391 21.4844 119.961 21.1172 121.617 21.1172C122.789 21.1172 123.898 21.3594 124.945 21.8438C125.992 22.3125 126.984 22.9219 127.922 23.6719C128.016 23.2031 128.07 22.8281 128.086 22.5469C128.102 22.2656 128.133 22.0469 128.18 21.8906C128.242 21.7344 128.352 21.6328 128.508 21.5859C128.664 21.5234 128.922 21.4766 129.281 21.4453C130.406 21.2891 131.523 21.1484 132.633 21.0234C133.758 20.8828 134.93 20.7812 136.148 20.7188L133.734 42.5625ZM126.727 33.7266C126.883 32.8359 126.984 32 127.031 31.2188C127.094 30.4219 127.141 29.6953 127.172 29.0391C126.922 28.8516 126.648 28.6562 126.352 28.4531C126.07 28.25 125.758 28.0625 125.414 27.8906C125.086 27.7031 124.734 27.5547 124.359 27.4453C124 27.3359 123.617 27.2812 123.211 27.2812C122.367 27.2812 121.656 27.5547 121.078 28.1016C120.516 28.6484 120.055 29.3203 119.695 30.1172C119.352 30.9141 119.102 31.7578 118.945 32.6484C118.805 33.5391 118.734 34.3281 118.734 35.0156C118.734 37.4844 119.055 39.2969 119.695 40.4531C120.352 41.5938 121.258 42.1641 122.414 42.1641C122.883 42.1641 123.406 42.0312 123.984 41.7656C124.562 41.5 125.148 41.1328 125.742 40.6641L126.727 33.7266Z" fill="white"/>
<path d="M156.281 21.3516C156.344 21.1953 156.461 21.1172 156.633 21.1172C156.664 21.1172 156.695 21.125 156.727 21.1406C156.758 21.1406 156.789 21.1406 156.82 21.1406C157.992 21.5938 159.195 21.9688 160.43 22.2656C161.664 22.5469 162.891 22.8203 164.109 23.0859C164.406 23.1484 164.555 23.3203 164.555 23.6016C164.555 23.8047 164.461 24.1172 164.273 24.5391L154.617 45.0703C154.492 45.3516 154.383 45.5781 154.289 45.75C154.195 45.9219 154.102 46.0625 154.008 46.1719C153.914 46.2812 153.812 46.3594 153.703 46.4062C153.594 46.4531 153.461 46.4922 153.305 46.5234C152.117 46.7578 150.914 47.0234 149.695 47.3203C148.477 47.6328 147.211 48.0156 145.898 48.4688C145.867 48.4688 145.844 48.4688 145.828 48.4688C145.812 48.4844 145.797 48.4922 145.781 48.4922H145.617C145.539 48.4922 145.477 48.4609 145.43 48.3984C145.383 48.3516 145.352 48.3047 145.336 48.2578C145.102 47.5859 144.828 46.7188 144.516 45.6562C144.219 44.5938 143.891 43.4062 143.531 42.0938C143.172 40.7812 142.797 39.3828 142.406 37.8984C142.016 36.4141 141.617 34.9062 141.211 33.375C140.805 31.8438 140.398 30.3281 139.992 28.8281C139.602 27.3125 139.219 25.8828 138.844 24.5391C138.703 24.0547 138.633 23.7109 138.633 23.5078C138.633 23.2891 138.758 23.1484 139.008 23.0859C140.227 22.8203 141.492 22.5469 142.805 22.2656C144.117 21.9688 145.359 21.5938 146.531 21.1406C146.578 21.125 146.648 21.1172 146.742 21.1172C146.945 21.1172 147.055 21.1953 147.07 21.3516L150.164 37.1016C150.242 36.9141 150.375 36.5781 150.562 36.0938C150.75 35.5938 150.977 35 151.242 34.3125C151.508 33.625 151.797 32.8672 152.109 32.0391C152.438 31.2109 152.766 30.3672 153.094 29.5078C153.438 28.6484 153.773 27.7969 154.102 26.9531C154.43 26.0938 154.734 25.2969 155.016 24.5625C155.312 23.8281 155.57 23.1797 155.789 22.6172C156.008 22.0547 156.172 21.6328 156.281 21.3516Z" fill="white"/>
<path d="M178.992 21.1172C180.477 21.1172 181.82 21.3984 183.023 21.9609C184.242 22.5078 185.281 23.2266 186.141 24.1172C187.016 24.9922 187.688 25.9766 188.156 27.0703C188.625 28.1641 188.859 29.2578 188.859 30.3516C188.859 31.3203 188.562 32.2969 187.969 33.2812C187.375 34.25 186.539 35.125 185.461 35.9062C184.398 36.6875 183.117 37.3203 181.617 37.8047C180.117 38.2891 178.469 38.5312 176.672 38.5312C175.734 38.5312 174.75 38.4375 173.719 38.25C173.781 38.9219 173.977 39.5 174.305 39.9844C174.633 40.4688 175.047 40.8672 175.547 41.1797C176.047 41.4922 176.609 41.7266 177.234 41.8828C177.875 42.0234 178.531 42.0938 179.203 42.0938C179.953 42.0938 180.672 42.0312 181.359 41.9062C182.062 41.7656 182.734 41.5859 183.375 41.3672C184.016 41.1484 184.633 40.9062 185.227 40.6406C185.82 40.375 186.383 40.1094 186.914 39.8438C187.055 39.8125 187.172 39.7891 187.266 39.7734C187.375 39.7422 187.477 39.7266 187.57 39.7266C187.57 39.7266 187.562 39.8516 187.547 40.1016C187.547 40.3516 187.547 40.7031 187.547 41.1562C187.547 41.6094 187.539 42.1562 187.523 42.7969C187.523 43.4375 187.516 44.1484 187.5 44.9297C187.547 45.0078 187.578 45.0859 187.594 45.1641C187.609 45.2422 187.617 45.3047 187.617 45.3516C187.617 45.5391 187.445 45.7422 187.102 45.9609C186.758 46.1797 186.305 46.4062 185.742 46.6406C185.195 46.875 184.562 47.1016 183.844 47.3203C183.141 47.5391 182.422 47.7344 181.688 47.9062C180.953 48.0938 180.242 48.2344 179.555 48.3281C178.867 48.4375 178.266 48.4922 177.75 48.4922C176.062 48.4922 174.422 48.1953 172.828 47.6016C171.25 47.0234 169.844 46.1875 168.609 45.0938C167.391 44 166.414 42.6719 165.68 41.1094C164.945 39.5469 164.578 37.7891 164.578 35.8359C164.578 33.7891 164.93 31.875 165.633 30.0938C166.336 28.2969 167.32 26.7344 168.586 25.4062C169.867 24.0781 171.391 23.0312 173.156 22.2656C174.922 21.5 176.867 21.1172 178.992 21.1172ZM178.711 27.3516C178.07 27.3516 177.477 27.4922 176.93 27.7734C176.398 28.0391 175.906 28.4297 175.453 28.9453C175.016 29.4453 174.633 30.0547 174.305 30.7734C173.977 31.4766 173.711 32.2578 173.508 33.1172C175.117 32.8359 176.453 32.5391 177.516 32.2266C178.578 31.9141 179.43 31.6016 180.07 31.2891C180.711 30.9609 181.164 30.6406 181.43 30.3281C181.695 30 181.828 29.6875 181.828 29.3906C181.828 29.1094 181.719 28.8438 181.5 28.5938C181.297 28.3438 181.039 28.125 180.727 27.9375C180.414 27.75 180.07 27.6094 179.695 27.5156C179.336 27.4062 179.008 27.3516 178.711 27.3516Z" fill="white"/>
<path d="M193.406 27.4453C193.594 25.3047 193.742 23.1875 193.852 21.0938C193.977 19 194.109 16.8516 194.25 14.6484C194.281 14.1328 194.328 13.7812 194.391 13.5938C194.469 13.3906 194.648 13.2578 194.93 13.1953C196.383 12.9297 197.836 12.6641 199.289 12.3984C200.758 12.1172 202.227 11.75 203.695 11.2969C203.742 11.2812 203.812 11.2734 203.906 11.2734C204.078 11.2734 204.164 11.3516 204.164 11.5078L201.117 44.9766V45.375C201.117 45.5156 201.062 45.6328 200.953 45.7266C200.844 45.8047 200.586 45.8984 200.18 46.0078L194.039 48.2578C193.867 48.3359 193.641 48.4141 193.359 48.4922C193.078 48.5859 192.805 48.6328 192.539 48.6328C192.32 48.6328 192.125 48.5781 191.953 48.4688C191.797 48.3594 191.719 48.1719 191.719 47.9062V47.7656C191.844 46.1875 191.961 44.6484 192.07 43.1484C192.195 41.6328 192.32 40.0703 192.445 38.4609C192.586 36.8516 192.734 35.1484 192.891 33.3516C193.047 31.5547 193.219 29.5859 193.406 27.4453Z" fill="white"/>
<path d="M229.57 13.6875C229.555 14.0625 229.523 14.5312 229.477 15.0938C229.43 15.6406 229.375 16.2266 229.312 16.8516C229.266 17.4609 229.203 18.0859 229.125 18.7266C229.062 19.3516 229 19.9297 228.938 20.4609C228.891 20.9922 228.852 21.4531 228.82 21.8438C228.789 22.2188 228.773 22.4609 228.773 22.5703C228.711 23.5391 228.641 24.4375 228.562 25.2656C228.5 26.0938 228.43 26.9141 228.352 27.7266C228.273 28.5391 228.188 29.3828 228.094 30.2578C228.016 31.1172 227.93 32.0703 227.836 33.1172C227.742 34.1641 227.633 35.3281 227.508 36.6094C227.398 37.8906 227.281 39.3594 227.156 41.0156L236.859 40.0312C237.297 39.9844 237.656 39.9609 237.938 39.9609C238.281 39.9609 238.492 40.0156 238.57 40.125C238.664 40.2344 238.711 40.4062 238.711 40.6406C238.711 40.6719 238.703 40.7188 238.688 40.7812C238.672 40.8281 238.633 40.9297 238.57 41.0859C238.523 41.2422 238.445 41.4688 238.336 41.7656C238.242 42.0625 238.109 42.4766 237.938 43.0078L237.422 44.5547C237.25 45.0547 237.086 45.5078 236.93 45.9141C236.789 46.3047 236.609 46.6484 236.391 46.9453C236.172 47.2266 235.898 47.4531 235.57 47.625C235.242 47.7969 234.82 47.9062 234.305 47.9531C233.977 47.9844 233.531 48.0078 232.969 48.0234C232.406 48.0547 231.758 48.0781 231.023 48.0938C230.289 48.125 229.492 48.1562 228.633 48.1875C227.789 48.2188 226.922 48.2578 226.031 48.3047C225.156 48.3359 224.273 48.3516 223.383 48.3516C222.492 48.3672 221.648 48.3828 220.852 48.3984C220.055 48.4141 219.32 48.4297 218.648 48.4453C217.977 48.4609 217.422 48.4766 216.984 48.4922C216.578 48.4922 216.281 48.4609 216.094 48.3984C215.922 48.3359 215.836 48.2344 215.836 48.0938C215.836 47.9219 215.891 47.6719 216 47.3438C216.109 47.0312 216.25 46.6797 216.422 46.2891C216.594 45.8828 216.781 45.4688 216.984 45.0469C217.203 44.6094 217.414 44.1875 217.617 43.7812L218.25 35.4141C218.375 33.9922 218.5 32.5469 218.625 31.0781C218.75 29.6094 218.859 28.1875 218.953 26.8125L219.352 20.6016C219.445 19.1328 219.508 18.0703 219.539 17.4141C219.57 16.7422 219.586 16.375 219.586 16.3125C219.617 16.0312 219.641 15.7969 219.656 15.6094C219.672 15.4219 219.695 15.2656 219.727 15.1406C219.773 15.0156 219.836 14.9219 219.914 14.8594C219.992 14.7969 220.109 14.75 220.266 14.7188L228.492 12.7734C228.664 12.7109 228.875 12.6797 229.125 12.6797C229.297 12.6797 229.414 12.7344 229.477 12.8438C229.555 12.9375 229.594 13.125 229.594 13.4062C229.594 13.4375 229.586 13.4844 229.57 13.5469C229.57 13.5938 229.57 13.6406 229.57 13.6875Z" fill="white"/>
<path d="M241.242 37.3359C241.445 35.1953 241.648 33.0781 241.852 30.9844C242.055 28.8906 242.234 26.7422 242.391 24.5391C242.422 24.0234 242.469 23.6719 242.531 23.4844C242.609 23.2812 242.789 23.1484 243.07 23.0859C244.398 22.8203 245.789 22.5469 247.242 22.2656C248.695 21.9688 250.102 21.5938 251.461 21.1406C251.508 21.125 251.578 21.1172 251.672 21.1172C251.844 21.1172 251.93 21.1797 251.93 21.3047L249.82 44.1328C249.773 44.6484 249.719 45.0078 249.656 45.2109C249.594 45.3984 249.422 45.5234 249.141 45.5859C247.812 45.9922 246.469 46.4453 245.109 46.9453C243.75 47.4453 242.312 47.9531 240.797 48.4688C240.75 48.4844 240.68 48.4922 240.586 48.4922C240.414 48.4922 240.328 48.4141 240.328 48.2578C240.328 48.2422 240.344 48.0312 240.375 47.625C240.406 47.2188 240.445 46.6953 240.492 46.0547C240.555 45.4141 240.617 44.6953 240.68 43.8984C240.742 43.1016 240.805 42.3047 240.867 41.5078C240.945 40.7109 241.016 39.9453 241.078 39.2109C241.141 38.4766 241.195 37.8516 241.242 37.3359ZM243 18.6328C243.047 17.9609 243.078 17.4453 243.094 17.0859C243.125 16.7266 243.148 16.4609 243.164 16.2891C243.18 16.1016 243.188 15.9844 243.188 15.9375C243.188 15.8906 243.188 15.8594 243.188 15.8438C243.203 15.8125 243.211 15.7656 243.211 15.7031C243.227 15.625 243.242 15.4766 243.258 15.2578C243.273 15.0234 243.297 14.6875 243.328 14.25C243.359 13.8125 243.406 13.2109 243.469 12.4453C243.5 11.9297 243.547 11.5781 243.609 11.3906C243.688 11.1875 243.867 11.0547 244.148 10.9922C245.477 10.7266 246.867 10.4531 248.32 10.1719C249.773 9.875 251.18 9.5 252.539 9.04688C252.586 9.03125 252.656 9.02344 252.75 9.02344C252.797 9.11719 252.859 9.17969 252.938 9.21094L253.008 9.25781L252.492 15.6797C252.445 16.1953 252.383 16.5547 252.305 16.7578C252.242 16.9609 252.078 17.0859 251.812 17.1328C250.484 17.3828 249.141 17.6562 247.781 17.9531C246.422 18.25 244.984 18.5469 243.469 18.8438C243.422 18.8594 243.352 18.8672 243.258 18.8672C243.086 18.8672 243 18.7891 243 18.6328Z" fill="white"/>
<path d="M257.602 47.625C257.617 47.4531 257.648 47.0859 257.695 46.5234C257.758 45.9453 257.828 45.2188 257.906 44.3438C257.984 43.4688 258.07 42.4688 258.164 41.3438C258.273 40.2031 258.391 38.9844 258.516 37.6875C258.641 36.375 258.766 35.0078 258.891 33.5859C259.031 32.1641 259.172 30.7266 259.312 29.2734H256.195C255.352 29.2734 254.742 29.2422 254.367 29.1797C253.992 29.1016 253.805 28.9531 253.805 28.7344C253.805 28.6719 253.883 28.5078 254.039 28.2422C254.195 27.9609 254.391 27.6328 254.625 27.2578C254.875 26.8672 255.141 26.4531 255.422 26.0156C255.703 25.5781 255.969 25.1719 256.219 24.7969C256.484 24.4062 256.711 24.0703 256.898 23.7891C257.086 23.5078 257.203 23.3359 257.25 23.2734H260.109L260.578 19.5469C260.797 17.5781 261.188 15.9219 261.75 14.5781C262.328 13.2344 263.039 12.1484 263.883 11.3203C264.742 10.4922 265.719 9.89844 266.812 9.53906C267.906 9.17969 269.078 9 270.328 9C271.578 9 272.875 9.15625 274.219 9.46875C275.578 9.76562 276.945 10.1797 278.32 10.7109C278.617 10.8359 278.836 10.9453 278.977 11.0391C279.133 11.1172 279.211 11.2266 279.211 11.3672C279.211 11.4922 279.156 11.6562 279.047 11.8594C278.547 12.8281 278.172 13.6094 277.922 14.2031C277.688 14.7969 277.5 15.2656 277.359 15.6094C277.219 15.9531 277.102 16.1875 277.008 16.3125C276.914 16.4219 276.773 16.4766 276.586 16.4766C276.492 16.4766 276.391 16.4531 276.281 16.4062C276.188 16.3594 276.07 16.3047 275.93 16.2422C275.383 16.0391 274.828 15.8594 274.266 15.7031C273.719 15.5312 273.195 15.4453 272.695 15.4453C271.992 15.4453 271.383 15.6641 270.867 16.1016C270.367 16.5391 269.969 17.3672 269.672 18.5859C269.5 19.2891 269.359 20.0469 269.25 20.8594C269.141 21.6719 269.047 22.4766 268.969 23.2734H275.086C275.211 23.2734 275.328 23.3203 275.438 23.4141C275.562 23.4922 275.625 23.6328 275.625 23.8359C275.625 23.9141 275.531 24.1953 275.344 24.6797C275.156 25.1641 274.891 25.7969 274.547 26.5781L273.703 28.4766C273.594 28.7109 273.477 28.8828 273.352 28.9922C273.242 29.1016 273.008 29.1719 272.648 29.2031H268.594C268.422 30.8281 268.258 32.4375 268.102 34.0312C267.945 35.625 267.797 37.125 267.656 38.5312C267.516 39.9219 267.391 41.1641 267.281 42.2578C267.172 43.3359 267.086 44.1719 267.023 44.7656C267.008 44.8125 267 44.8984 267 45.0234C267 45.0859 267 45.1406 267 45.1875C267.016 45.2344 267.023 45.2734 267.023 45.3047C267.023 45.4453 266.969 45.5625 266.859 45.6562C266.766 45.7344 266.508 45.8281 266.086 45.9375L259.922 48.1172C259.75 48.1797 259.523 48.2578 259.242 48.3516C258.961 48.4453 258.688 48.4922 258.422 48.4922C258.156 48.4922 257.953 48.4297 257.812 48.3047C257.672 48.1797 257.602 47.9531 257.602 47.625Z" fill="white"/>
<path d="M289.852 21.1172C291.336 21.1172 292.68 21.3984 293.883 21.9609C295.102 22.5078 296.141 23.2266 297 24.1172C297.875 24.9922 298.547 25.9766 299.016 27.0703C299.484 28.1641 299.719 29.2578 299.719 30.3516C299.719 31.3203 299.422 32.2969 298.828 33.2812C298.234 34.25 297.398 35.125 296.32 35.9062C295.258 36.6875 293.977 37.3203 292.477 37.8047C290.977 38.2891 289.328 38.5312 287.531 38.5312C286.594 38.5312 285.609 38.4375 284.578 38.25C284.641 38.9219 284.836 39.5 285.164 39.9844C285.492 40.4688 285.906 40.8672 286.406 41.1797C286.906 41.4922 287.469 41.7266 288.094 41.8828C288.734 42.0234 289.391 42.0938 290.062 42.0938C290.812 42.0938 291.531 42.0312 292.219 41.9062C292.922 41.7656 293.594 41.5859 294.234 41.3672C294.875 41.1484 295.492 40.9062 296.086 40.6406C296.68 40.375 297.242 40.1094 297.773 39.8438C297.914 39.8125 298.031 39.7891 298.125 39.7734C298.234 39.7422 298.336 39.7266 298.43 39.7266C298.43 39.7266 298.422 39.8516 298.406 40.1016C298.406 40.3516 298.406 40.7031 298.406 41.1562C298.406 41.6094 298.398 42.1562 298.383 42.7969C298.383 43.4375 298.375 44.1484 298.359 44.9297C298.406 45.0078 298.438 45.0859 298.453 45.1641C298.469 45.2422 298.477 45.3047 298.477 45.3516C298.477 45.5391 298.305 45.7422 297.961 45.9609C297.617 46.1797 297.164 46.4062 296.602 46.6406C296.055 46.875 295.422 47.1016 294.703 47.3203C294 47.5391 293.281 47.7344 292.547 47.9062C291.812 48.0938 291.102 48.2344 290.414 48.3281C289.727 48.4375 289.125 48.4922 288.609 48.4922C286.922 48.4922 285.281 48.1953 283.688 47.6016C282.109 47.0234 280.703 46.1875 279.469 45.0938C278.25 44 277.273 42.6719 276.539 41.1094C275.805 39.5469 275.438 37.7891 275.438 35.8359C275.438 33.7891 275.789 31.875 276.492 30.0938C277.195 28.2969 278.18 26.7344 279.445 25.4062C280.727 24.0781 282.25 23.0312 284.016 22.2656C285.781 21.5 287.727 21.1172 289.852 21.1172ZM289.57 27.3516C288.93 27.3516 288.336 27.4922 287.789 27.7734C287.258 28.0391 286.766 28.4297 286.312 28.9453C285.875 29.4453 285.492 30.0547 285.164 30.7734C284.836 31.4766 284.57 32.2578 284.367 33.1172C285.977 32.8359 287.312 32.5391 288.375 32.2266C289.438 31.9141 290.289 31.6016 290.93 31.2891C291.57 30.9609 292.023 30.6406 292.289 30.3281C292.555 30 292.688 29.6875 292.688 29.3906C292.688 29.1094 292.578 28.8438 292.359 28.5938C292.156 28.3438 291.898 28.125 291.586 27.9375C291.273 27.75 290.93 27.6094 290.555 27.5156C290.195 27.4062 289.867 27.3516 289.57 27.3516Z" fill="white"/>
<path d="M19.0812 55.8322C20.0797 57.3893 22.4094 57.3893 23.4078 55.8322C39.6047 32.4761 42.6 30.0293 42.6 21.3541C42.6 9.56488 33.0594 0 21.3 0C9.42969 0 0 9.56488 0 21.3541C0 30.0293 2.88437 32.4761 19.0812 55.8322Z" fill="white"/>
<path d="M12.1611 29.8286C12.2119 29.0899 12.2627 28.3765 12.3135 27.6884C12.3643 27.0003 12.41 26.3324 12.4507 25.6848L12.9994 18.5205C13.0603 17.9741 13.1111 17.4783 13.1518 17.033C13.1924 16.5777 13.2229 16.1375 13.2432 15.7125C13.2737 15.2774 13.2991 14.8423 13.3195 14.4071C13.3499 13.9619 13.3804 13.4711 13.4109 12.9348C13.0756 12.9247 12.7199 12.9196 12.344 12.9196C11.9782 12.9196 11.592 12.9196 11.1856 12.9196H8.24387C8.1321 12.9196 8.06097 12.8792 8.03048 12.7982C8.01016 12.7071 8 12.6262 8 12.5554V12.4491L9.67662 8.0625L9.66138 8.00179C9.66138 7.95119 9.69186 7.91071 9.75283 7.88036C9.82396 7.83988 9.97638 7.80952 10.2101 7.78929C11.6123 7.70833 12.9689 7.63244 14.2797 7.56161C15.6007 7.48065 16.9013 7.40982 18.1816 7.34911C19.4721 7.28839 20.7575 7.22768 22.0379 7.16696C23.3283 7.10625 24.6544 7.0506 26.016 7C26.138 7 26.265 7.01518 26.3971 7.04554C26.5393 7.07589 26.6105 7.1872 26.6105 7.37946C26.6105 7.3997 26.6054 7.41994 26.5952 7.44018C26.5851 7.46042 26.58 7.48065 26.58 7.50089C26.4174 7.91577 26.265 8.31042 26.1227 8.68482C25.9906 9.05923 25.8585 9.42857 25.7264 9.79286C25.5943 10.1571 25.4571 10.5265 25.3149 10.9009C25.1828 11.2753 25.0355 11.6699 24.8729 12.0848C24.8627 12.0949 24.8424 12.1455 24.8119 12.2366C24.7814 12.3176 24.7357 12.4137 24.6747 12.525C24.6138 12.6262 24.5325 12.7223 24.4309 12.8134C24.3292 12.9045 24.2022 12.9551 24.0498 12.9652C23.999 12.9551 23.9482 12.95 23.8974 12.95C23.8466 12.95 23.7907 12.95 23.7297 12.95H19.6601C19.6093 13.4661 19.5585 14.0125 19.5077 14.5893C19.467 15.1661 19.4162 15.7277 19.3553 16.2741L18.2426 28.1286C18.2324 28.2196 18.2121 28.3107 18.1816 28.4018C18.1613 28.4929 18.0953 28.5586 17.9835 28.5991L13.67 30.1473C13.5582 30.1878 13.4109 30.2384 13.228 30.2991C13.0451 30.3598 12.8673 30.3902 12.6945 30.3902C12.5523 30.3902 12.4253 30.3548 12.3135 30.2839C12.2119 30.2131 12.1611 30.0815 12.1611 29.8893V29.8286Z" fill="#41B883"/>
<path d="M28.4556 15.0598C28.4455 15.3027 28.4251 15.6062 28.3947 15.9705C28.3642 16.3247 28.3286 16.7042 28.288 17.1089C28.2575 17.5036 28.2168 17.9083 28.166 18.3232C28.1254 18.728 28.0847 19.1024 28.0441 19.4464C28.0136 19.7905 27.9882 20.089 27.9679 20.342C27.9476 20.5848 27.9374 20.7417 27.9374 20.8125C27.8968 21.4399 27.851 22.0217 27.8002 22.558C27.7596 23.0943 27.7139 23.6256 27.663 24.1518C27.6122 24.678 27.5564 25.2244 27.4954 25.7911C27.4446 26.3476 27.3887 26.9649 27.3277 27.6429C27.2668 28.3208 27.1956 29.0747 27.1143 29.9045C27.0432 30.7342 26.967 31.6854 26.8857 32.758L33.1959 32.1205C33.4804 32.0902 33.7141 32.075 33.897 32.075C34.1206 32.075 34.2577 32.1104 34.3085 32.1813C34.3695 32.2521 34.4 32.3634 34.4 32.5152C34.4 32.5354 34.3949 32.5658 34.3848 32.6063C34.3746 32.6366 34.3492 32.7024 34.3085 32.8036C34.2781 32.9048 34.2273 33.0515 34.1561 33.2438C34.0952 33.436 34.0088 33.7042 33.897 34.0482L33.5617 35.05C33.4499 35.3738 33.3432 35.6673 33.2416 35.9304C33.1502 36.1833 33.0333 36.406 32.891 36.5982C32.7488 36.7804 32.571 36.9271 32.3576 37.0384C32.1442 37.1497 31.8698 37.2205 31.5345 37.2509C31.3211 37.2711 31.0315 37.2863 30.6657 37.2964C30.2999 37.3167 29.8782 37.3318 29.4006 37.342C28.923 37.3622 28.4048 37.3824 27.8459 37.4027C27.2972 37.4229 26.7333 37.4482 26.1541 37.4786C25.5851 37.4988 25.0109 37.5089 24.4317 37.5089C23.8525 37.519 23.3038 37.5292 22.7856 37.5393C22.2674 37.5494 21.7898 37.5595 21.3529 37.5696C20.9159 37.5798 20.5552 37.5899 20.2707 37.6C20.0065 37.6 19.8134 37.5798 19.6915 37.5393C19.5797 37.4988 19.5238 37.433 19.5238 37.342C19.5238 37.2307 19.5594 37.0688 19.6305 36.8563C19.7017 36.6539 19.7931 36.4262 19.9049 36.1732C20.0167 35.9101 20.1386 35.642 20.2707 35.3688C20.4129 35.0854 20.5501 34.8122 20.6822 34.5491L21.0938 29.1304C21.175 28.2095 21.2563 27.2735 21.3376 26.3223C21.4189 25.3711 21.49 24.4503 21.551 23.5598L21.8101 19.5375C21.8711 18.5863 21.9117 17.8982 21.9321 17.4732C21.9524 17.0381 21.9625 16.8003 21.9625 16.7598C21.9829 16.5777 21.9981 16.4259 22.0083 16.3045C22.0184 16.183 22.0337 16.0818 22.054 16.0009C22.0845 15.9199 22.1251 15.8592 22.1759 15.8188C22.2267 15.7783 22.3029 15.7479 22.4046 15.7277L27.7545 14.4679C27.8663 14.4274 28.0034 14.4071 28.166 14.4071C28.2778 14.4071 28.354 14.4426 28.3947 14.5134C28.4455 14.5741 28.4709 14.6955 28.4709 14.8777C28.4709 14.8979 28.4658 14.9283 28.4556 14.9688C28.4556 14.9991 28.4556 15.0295 28.4556 15.0598Z" fill="#41B883"/>
</svg>
